<?xml version="1.0" encoding="UTF-8"?>
<svg xmlns="http://www.w3.org/2000/svg" version="1.1" viewBox="0 0 1151.5 216.7">
  <defs>
    <style>
      .cls-1 {
        letter-spacing: .3em;
      }

      .cls-1, .cls-2 {
        font-family: FreeSansBold, FreeSans;
        font-size: 36px;
      }

      .cls-1, .cls-3 {
        fill: #0c7565;
      }

      .cls-4 {
        fill: #939598;
      }

      .cls-2 {
        fill: #8d8e8d;
        letter-spacing: 0em;
      }
    </style>
  </defs>
  <!-- Generator: Adobe Illustrator 28.7.0, SVG Export Plug-In . SVG Version: 1.2.0 Build 136)  -->
  <g>
    <g id="Layer_1">
      <g>
        <g id="Logo">
          <polygon class="cls-3" points="-710.9 129.9 -615.3 155.5 -615.3 73.6 -710.9 48 -710.9 129.9"/>
          <polygon class="cls-3" points="-710.9 264.7 -615.3 264.7 -615.3 165.9 -710.9 140.3 -710.9 264.7"/>
          <polygon class="cls-3" points="-817 155.5 -721.3 129.9 -721.3 48 -817 73.6 -817 155.5"/>
          <polygon class="cls-3" points="-817 264.7 -721.3 264.7 -721.3 140.3 -817 165.9 -817 264.7"/>
          <g>
            <polygon class="cls-4" points="-519.7 181.1 -519.7 181.1 -509.4 183.9 -509.4 183.7 -509.4 127.4 -605 101.8 -605 158.3 -519.7 181.1"/>
            <polygon class="cls-4" points="-519.7 191.5 -519.7 191.5 -605 168.7 -605 183.7 -605 264.7 -509.4 233.7 -509.4 209.3 -509.4 194.3 -519.7 191.5"/>
          </g>
          <g>
            <polygon class="cls-4" points="-912.5 181.1 -912.5 181.2 -827.3 158.3 -827.3 101.8 -922.9 127.4 -922.9 183.7 -922.9 183.9 -912.5 181.1"/>
            <polygon class="cls-4" points="-912.5 191.6 -912.5 191.5 -922.9 194.3 -922.9 209.3 -922.9 233.7 -827.3 264.7 -827.3 183.7 -827.3 168.7 -912.5 191.6"/>
          </g>
        </g>
        <g id="Dilamco">
          <path class="cls-3" d="M-773.7,315.3c2.4-.6,4.7-1.1,7.3-1.7,4.5,12.5,8.9,24.6,13.3,36.8,6.8,18.6,13.6,37.1,20.4,55.6,1.2,3.1,2.6,6.2,4.3,8.9,2.4,3.8,5.8,6.6,10.7,5.6,5.1-1,8.1-4.5,8.8-9.6,1.1-8.1,2.2-16.1,2.9-24.2,1.3-16.2,2.2-32.5,3.3-48.7,1-14.7-3-15.7-12.5-17-.6,0-1.3-.4-2.2-.6,0-1.2-.2-2.5-.2-4h32.6c11.4,25.6,23,51.4,35.2,78.6,12.3-27,24.1-52.8,35.9-78.6h32.2v4.2c-1.6.4-3.2.8-4.8,1.1-7.5,1.2-9.9,3.4-9.7,11.2.5,25.8,1.2,51.5,2,77.3.2,7.5,2.6,9.7,10.1,11.1,1.3.3,2.6.6,4.4,1,0,1.2.1,2.6.2,4.2h-48c0-1.4-.1-2.7-.2-3.8.5-.3.8-.6,1.1-.7,12.6-3.3,12.8-3.5,12.7-16.5,0-21.6,0-43.3-.2-64.9,0-1.6-.2-3.2-.3-4.8-.5-.1-.9-.2-1.4-.4-12.9,29.8-25.9,59.7-38.9,89.7h-4.3c-12-29.4-23.9-58.5-35.7-87.6l-1.2.2c-.4,5.2-.9,10.3-1.1,15.5-.7,14.3-1.4,28.6-1.9,42.8-.2,4.6,0,9.3.5,13.9.7,7.9,2.8,9.9,10.7,11,1.3.2,2.6.5,4.3.8,0,1.5.1,2.8.2,4.5h-77.3v-4c.5-.3.7-.6,1-.7,9.9-3.1,10.1-3.4,6.7-13.2-2.1-6-4.3-11.8-6.5-17.8-.2-.6-.6-1.2-1-1.9h-34.4c-2.6,8.4-5.5,16.9-7.7,25.7-.4,1.4,2.1,4.2,3.9,5.4,2,1.3,4.7,1.5,7.3,2.2,0,1.3.1,2.6.2,4.2h-162.1v-3.8c.5-.3.7-.5,1-.5,12.6-2.8,13.6-3.9,13.6-16.9,0-22.5,0-44.9,0-67.4,0-1.2,0-2.3,0-3.5-.4-9.4-1.9-11-11.1-12.8-1.1-.2-2.2-.6-3.5-.9v-4.1h95.1v4.1c-1.4.4-2.5.8-3.6,1-8.9,1.7-10.5,3.4-10.5,12.6,0,24.8,0,49.6,0,74.4,0,8.7,2.1,10.9,10.6,11.6.2,0,.3,0,.5,0,20.6,1.8,25.7-1.2,33.8-19.9.3-.6.6-1.2,1.1-2.2,1.5.3,3,.6,5.1,1.1-1.5,7.4-2.9,14.4-4.3,21.8,6.7-.1,10.3-3.8,12.5-8.9,4.5-10.5,8.8-21.2,13.1-31.8,8.6-21.4,17.1-42.8,25.9-64.8ZM-918.9,371c0,13.3-.2,26.6.2,39.9,0,2.9,1.7,7,3.9,8.4,5.8,3.6,12.6,3.1,18.6.1,5.2-2.5,4.7-8,4.7-12.8,0-23.8,0-47.6,0-71.4,0-2.3-.4-4.6-.7-6.9-.5-3.9-3.1-5.9-6.6-6.5-3.4-.5-6.9-.7-10.3-.3-7.8.9-9.6,3.1-9.7,11-.1,12.8,0,25.6,0,38.4ZM-776,342.2c-.5,0-1.1,0-1.6-.1-4.7,12.7-9.3,25.4-14.1,38.5h29c-4.6-13.2-9-25.8-13.4-38.4Z"/>
          <path class="cls-3" d="M-1064,320.4v-4.3c9.7,0,19.2-.2,28.6,0,14.6.4,29.3.1,43.7,2.1,19.3,2.6,33.4,13.6,38.7,32.8,5.6,20,2.6,38.9-11.6,55-10.2,11.5-23.6,17.8-38.4,19.1-20.5,1.8-41.1,1.6-61.9,2.3-.3-2.2-.5-3.4-.7-4.9,1.9-.5,3.5-.9,5.1-1.2,7.9-1.5,10.1-3.6,10.2-11.5.2-25.6.2-51.2,0-76.8,0-8-1.4-9-13.6-12.5ZM-1030.7,368.3c0,12.6,0,25.3,0,37.9,0,8.1,3.6,12.6,10.4,13.6,17.5,2.7,33.9-5.7,41.7-21.7,6.1-12.5,7.4-25.8,5.2-39.4-4.4-27.3-25.6-39.6-49.3-36.5-6.8.9-8,2.5-8,9.6,0,12.1,0,24.3,0,36.4Z"/>
          <path class="cls-3" d="M-421,313.6c30.6.9,55.3,24.1,54.2,58.5-1.1,35.2-26.8,58.9-60.7,57.3-33.2-1.6-55.9-27.1-54.4-61.2,1.3-32.3,27.9-56.1,60.9-54.6ZM-459.5,368.3c.6,14.6,3,28.7,12.1,40.8,15.6,20.9,43,17.8,52.8-6.3,2.9-7.1,4.4-15,5-22.7,1.2-16.7-.9-33-11.1-47-14.1-19.3-39.1-17.7-51,2.9-5.8,9.9-7.2,20.9-7.7,32.2Z"/>
          <path class="cls-3" d="M-485.6,318.4c1.2,9,2.4,17.3,3.6,26-2,.5-3.5.9-5.2,1.4-.5-1.2-.8-1.9-1.1-2.7-4.3-13.2-12.9-21.6-27.1-23-13.9-1.4-25.7,2.9-34.4,14-9.5,12.1-12.3,26.3-11.1,41.3.8,10.7,3.5,21,9.9,29.9,9.2,12.8,21.6,18.8,37.5,16.7,10.5-1.4,17.7-7.9,23.4-16.3,1.9-2.9,3.7-5.9,5.7-9.3,1.6.6,3.2,1.2,5.4,2-3.2,9.1-6.3,17.8-9.3,26.3-20.4,4.8-39.9,7.3-59.5,0-23.7-8.8-37.7-31.8-35.7-56.9,2.5-30.9,25.7-50,54.9-53.8,13.2-1.7,26.2-.2,39,3,1.3.3,2.5.8,3.9,1.3Z"/>
        </g>
        <text class="cls-2" transform="translate(-920.6 534.6)"><tspan x="0" y="0">R.B.Q. 8306-0806-27 </tspan></text>
        <text class="cls-1" transform="translate(-926.5 486.9)"><tspan x="0" y="0">CONSTRUCTION</tspan></text>
      </g>
      <g>
        <g id="Logo-2" data-name="Logo">
          <polygon class="cls-3" points="212 81.9 307.6 107.5 307.6 25.6 212 0 212 81.9"/>
          <polygon class="cls-3" points="212 216.7 307.6 216.7 307.6 117.9 212 92.3 212 216.7"/>
          <polygon class="cls-3" points="106 107.5 201.6 81.9 201.6 0 106 25.6 106 107.5"/>
          <polygon class="cls-3" points="106 216.7 201.6 216.7 201.6 92.3 106 117.9 106 216.7"/>
          <g>
            <polygon class="cls-4" points="403.2 133.1 403.2 133.1 413.6 135.9 413.6 135.7 413.6 79.4 318 53.8 318 110.3 403.2 133.1"/>
            <polygon class="cls-4" points="403.2 143.5 403.2 143.5 318 120.7 318 135.7 318 216.7 413.6 185.7 413.6 161.3 413.6 146.3 403.2 143.5"/>
          </g>
          <g>
            <polygon class="cls-4" points="10.4 133.1 10.4 133.2 95.6 110.3 95.6 53.8 0 79.4 0 135.7 0 135.9 10.4 133.1"/>
            <polygon class="cls-4" points="10.4 143.6 10.4 143.5 0 146.3 0 161.3 0 185.7 95.6 216.7 95.6 135.7 95.6 120.7 10.4 143.6"/>
          </g>
        </g>
        <g id="Dilamco-2" data-name="Dilamco">
          <path class="cls-3" d="M744.5,45c2.4-.6,4.7-1.1,7.3-1.7,4.5,12.5,8.9,24.6,13.3,36.8,6.8,18.6,13.6,37.1,20.4,55.6,1.2,3.1,2.6,6.2,4.3,8.9,2.4,3.8,5.8,6.6,10.7,5.6,5.1-1,8.1-4.5,8.8-9.6,1.1-8.1,2.2-16.1,2.9-24.2,1.3-16.2,2.2-32.5,3.3-48.7,1-14.7-3-15.7-12.5-17-.6,0-1.3-.4-2.2-.6,0-1.2-.2-2.5-.2-4h32.6c11.4,25.6,23,51.4,35.2,78.6,12.3-27,24.1-52.8,35.9-78.6h32.2v4.2c-1.6.4-3.2.8-4.8,1.1-7.5,1.2-9.9,3.4-9.7,11.2.5,25.8,1.2,51.5,2,77.3.2,7.5,2.6,9.7,10.1,11.1,1.3.3,2.6.6,4.4,1,0,1.2.1,2.6.2,4.2h-48c0-1.4-.1-2.7-.2-3.8.5-.3.8-.6,1.1-.7,12.6-3.3,12.8-3.5,12.7-16.5,0-21.6,0-43.3-.2-64.9,0-1.6-.2-3.2-.3-4.8-.5-.1-.9-.2-1.4-.4-12.9,29.8-25.9,59.7-38.9,89.7h-4.3c-12-29.4-23.9-58.5-35.7-87.6l-1.2.2c-.4,5.2-.9,10.3-1.1,15.5-.7,14.3-1.4,28.6-1.9,42.8-.2,4.6,0,9.3.5,13.9.7,7.9,2.8,9.9,10.7,11,1.3.2,2.6.5,4.3.8,0,1.5.1,2.8.2,4.5h-77.3v-4c.5-.3.7-.6,1-.7,9.9-3.1,10.1-3.4,6.7-13.2-2.1-6-4.3-11.8-6.5-17.8-.2-.6-.6-1.2-1-1.9h-34.4c-2.6,8.4-5.5,16.9-7.7,25.7-.4,1.4,2.1,4.2,3.9,5.4,2,1.3,4.7,1.5,7.3,2.2,0,1.3.1,2.6.2,4.2h-162.1v-3.8c.5-.3.7-.5,1-.5,12.6-2.8,13.6-3.9,13.6-16.9,0-22.5,0-44.9,0-67.4,0-1.2,0-2.3,0-3.5-.4-9.4-1.9-11-11.1-12.8-1.1-.2-2.2-.6-3.5-.9v-4.1h95.1v4.1c-1.4.4-2.5.8-3.6,1-8.9,1.7-10.5,3.4-10.5,12.6,0,24.8,0,49.6,0,74.4,0,8.7,2.1,10.9,10.6,11.6.2,0,.3,0,.5,0,20.6,1.8,25.7-1.2,33.8-19.9.3-.6.6-1.2,1.1-2.2,1.5.3,3,.6,5.1,1.1-1.5,7.4-2.9,14.4-4.3,21.8,6.7-.1,10.3-3.8,12.5-8.9,4.5-10.5,8.8-21.2,13.1-31.8,8.6-21.4,17.1-42.8,25.9-64.8ZM599.3,100.7c0,13.3-.2,26.6.2,39.9,0,2.9,1.7,7,3.9,8.4,5.8,3.6,12.6,3.1,18.6.1,5.2-2.5,4.7-8,4.7-12.8,0-23.8,0-47.6,0-71.4,0-2.3-.4-4.6-.7-6.9-.5-3.9-3.1-5.9-6.6-6.5-3.4-.5-6.9-.7-10.3-.3-7.8.9-9.6,3.1-9.7,11-.1,12.8,0,25.6,0,38.4ZM742.2,71.8c-.5,0-1.1,0-1.6-.1-4.7,12.7-9.3,25.4-14.1,38.5h29c-4.6-13.2-9-25.8-13.4-38.4Z"/>
          <path class="cls-3" d="M454.3,50.1v-4.3c9.7,0,19.2-.2,28.6,0,14.6.4,29.3.1,43.7,2.1,19.3,2.6,33.4,13.6,38.7,32.8,5.6,20,2.6,38.9-11.6,55-10.2,11.5-23.6,17.8-38.4,19.1-20.5,1.8-41.1,1.6-61.9,2.3-.3-2.2-.5-3.4-.7-4.9,1.9-.5,3.5-.9,5.1-1.2,7.9-1.5,10.1-3.6,10.2-11.5.2-25.6.2-51.2,0-76.8,0-8-1.4-9-13.6-12.5ZM487.5,98c0,12.6,0,25.3,0,37.9,0,8.1,3.6,12.6,10.4,13.6,17.5,2.7,33.9-5.7,41.7-21.7,6.1-12.5,7.4-25.8,5.2-39.4-4.4-27.3-25.6-39.6-49.3-36.5-6.8.9-8,2.5-8,9.6,0,12.1,0,24.3,0,36.4Z"/>
          <path class="cls-3" d="M1097.2,43.3c30.6.9,55.3,24.1,54.2,58.5-1.1,35.2-26.8,58.9-60.7,57.3-33.2-1.6-55.9-27.1-54.4-61.2,1.3-32.3,27.9-56.1,60.9-54.6ZM1058.7,98c.6,14.6,3,28.7,12.1,40.8,15.6,20.9,43,17.8,52.8-6.3,2.9-7.1,4.4-15,5-22.7,1.2-16.7-.9-33-11.1-47-14.1-19.3-39.1-17.7-51,2.9-5.8,9.9-7.2,20.9-7.7,32.2Z"/>
          <path class="cls-3" d="M1032.6,48c1.2,9,2.4,17.3,3.6,26-2,.5-3.5.9-5.2,1.4-.5-1.2-.8-1.9-1.1-2.7-4.3-13.2-12.9-21.6-27.1-23-13.9-1.4-25.7,2.9-34.4,14-9.5,12.1-12.3,26.3-11.1,41.3.8,10.7,3.5,21,9.9,29.9,9.2,12.8,21.6,18.8,37.5,16.7,10.5-1.4,17.7-7.9,23.4-16.3,1.9-2.9,3.7-5.9,5.7-9.3,1.6.6,3.2,1.2,5.4,2-3.2,9.1-6.3,17.8-9.3,26.3-20.4,4.8-39.9,7.3-59.5,0-23.7-8.8-37.7-31.8-35.7-56.9,2.5-30.9,25.7-50,54.9-53.8,13.2-1.7,26.2-.2,39,3,1.3.3,2.5.8,3.9,1.3Z"/>
        </g>
        <g>
          <path class="cls-3" d="M472,190.8c-.7-3.1-2.5-4.7-5.6-4.7s-3.8.8-5,2.4c-1.2,1.6-1.8,3.9-1.8,6.8s.6,5.1,1.7,6.7c1.2,1.6,2.8,2.4,4.9,2.4s3-.5,4-1.4c1-.9,1.6-2.2,1.8-3.9h5.3c-.2,3-1.3,5.4-3.3,7.1-2,1.8-4.7,2.6-7.9,2.6s-6.5-1.2-8.7-3.7c-2.1-2.5-3.2-5.8-3.2-10s1.1-7.6,3.2-10.1,5.1-3.7,8.8-3.7,5.6.8,7.6,2.5c2,1.7,3.1,3.9,3.3,6.8h-5.1Z"/>
          <path class="cls-3" d="M494.7,205.1c-2.3-2.6-3.5-5.9-3.5-9.9s1.2-7.3,3.5-9.9c2.3-2.6,5.4-3.9,9.1-3.9s6.9,1.3,9.2,3.8c2.3,2.6,3.5,5.9,3.5,10.1s-1.1,7.1-3.4,9.7-5.4,3.9-9.2,3.9-6.9-1.3-9.2-3.9ZM503.9,186.1c-2.2,0-3.9.8-5.3,2.5-1.3,1.7-2,3.9-2,6.6s.7,5,2,6.6c1.3,1.7,3.1,2.5,5.3,2.5s3.9-.8,5.2-2.5c1.3-1.7,2-3.8,2-6.5s-.7-5.1-2-6.8c-1.3-1.7-3.1-2.5-5.3-2.5Z"/>
          <path class="cls-3" d="M547,208.1l-10.5-18.1v18.1h-5.4v-26.2h5.5l10.4,17.9v-17.9h5.4v26.2h-5.4Z"/>
          <path class="cls-3" d="M587.2,189.9h-5c-.2-2.7-2-4.1-5.5-4.1s-2.5.3-3.3.9c-.8.6-1.2,1.4-1.2,2.4s.3,1.7,1,2.1c.7.5,2,.9,3.9,1.3l4.1.8c2.4.5,4.2,1.3,5.3,2.4,1.1,1.1,1.7,2.7,1.7,4.8s-.9,4.7-2.8,6.2c-1.9,1.5-4.5,2.2-7.9,2.2s-6-.7-7.8-2.2c-1.9-1.5-2.9-3.6-3-6.4h5.3c0,1.4.6,2.5,1.7,3.2,1,.7,2.4,1.1,4.2,1.1s2.9-.3,3.9-.9,1.4-1.5,1.4-2.6-.4-1.9-1.1-2.4-2-1-3.8-1.4l-3.7-.7c-2.7-.5-4.6-1.3-5.7-2.4s-1.7-2.6-1.7-4.7.9-4.6,2.6-6c1.7-1.4,4.2-2.1,7.3-2.1s1.8,0,2.6.2c.9.1,1.8.4,2.7.7,1,.4,1.8.9,2.5,1.4.7.6,1.3,1.4,1.7,2.4.5,1,.7,2.2.7,3.6Z"/>
          <path class="cls-3" d="M613.7,186.4v21.7h-5.4v-21.7h-8v-4.5h21v4.5h-7.7Z"/>
          <path class="cls-3" d="M651.4,203.6c0-.7,0-1.3,0-1.7,0-.4,0-.8,0-1.1,0-1.1-.3-1.9-.8-2.4-.5-.5-1.4-.7-2.6-.7h-6.2v10.4h-5.4v-26.2h14.1c1.3,0,2.5.2,3.5.7,1,.5,1.7,1.1,2.2,1.8.5.7.8,1.5,1.1,2.2.2.8.3,1.5.3,2.4,0,3.2-1.5,5.3-4.4,6.5.6.3,1.1.5,1.4.6.3.2.6.4,1,.8.3.4.5.7.6,1s.2.8.3,1.6c.1.8.2,1.5.2,2.3,0,.7,0,1.8,0,3.3,0,1,.4,1.7,1.2,2.2v1h-5.8c-.3-.6-.6-1.2-.7-1.8-.1-.6-.2-1.5-.2-2.7ZM652.3,189.7c0-1.3-.3-2.2-.9-2.7-.6-.4-1.6-.7-2.9-.7h-6.5v6.8h6.5c1.3,0,2.2-.2,2.9-.7.6-.5,1-1.4,1-2.8Z"/>
          <path class="cls-3" d="M687.5,208.7c-.9.2-1.8.3-2.8.3s-1.9,0-2.8-.3c-.9-.2-1.8-.5-2.8-.9-.9-.4-1.8-1-2.5-1.7-.7-.7-1.3-1.6-1.7-2.7-.4-1.1-.7-2.4-.7-3.8v-17.8h5.4v17.8c0,3.1,1.7,4.7,5,4.7s5-1.6,5-4.7v-17.8h5.4v17.8c0,1.4-.2,2.7-.7,3.8s-1,2-1.7,2.7c-.7.7-1.5,1.2-2.5,1.7-.9.4-1.9.7-2.8.9Z"/>
          <path class="cls-3" d="M728.8,190.8c-.7-3.1-2.5-4.7-5.6-4.7s-3.8.8-5,2.4c-1.2,1.6-1.8,3.9-1.8,6.8s.6,5.1,1.7,6.7c1.2,1.6,2.8,2.4,4.9,2.4s3-.5,4-1.4c1-.9,1.6-2.2,1.8-3.9h5.3c-.2,3-1.3,5.4-3.3,7.1-2,1.8-4.7,2.6-7.9,2.6s-6.5-1.2-8.7-3.7c-2.1-2.5-3.2-5.8-3.2-10s1.1-7.6,3.2-10.1,5.1-3.7,8.8-3.7,5.6.8,7.6,2.5c2,1.7,3.1,3.9,3.3,6.8h-5.1Z"/>
          <path class="cls-3" d="M759.7,186.4v21.7h-5.4v-21.7h-8v-4.5h21v4.5h-7.7Z"/>
          <path class="cls-3" d="M786.7,181.9v26.2h-5.4v-26.2h5.4Z"/>
          <path class="cls-3" d="M804.2,205.1c-2.3-2.6-3.5-5.9-3.5-9.9s1.2-7.3,3.5-9.9c2.3-2.6,5.4-3.9,9.1-3.9s6.9,1.3,9.2,3.8c2.3,2.6,3.5,5.9,3.5,10.1s-1.1,7.1-3.4,9.7c-2.3,2.6-5.4,3.9-9.2,3.9s-6.9-1.3-9.2-3.9ZM813.4,186.1c-2.2,0-3.9.8-5.3,2.5-1.3,1.7-2,3.9-2,6.6s.7,5,2,6.6c1.3,1.7,3.1,2.5,5.3,2.5s3.9-.8,5.2-2.5c1.3-1.7,2-3.8,2-6.5s-.7-5.1-2-6.8c-1.3-1.7-3.1-2.5-5.3-2.5Z"/>
          <path class="cls-3" d="M856.5,208.1l-10.5-18.1v18.1h-5.4v-26.2h5.5l10.4,17.9v-17.9h5.4v26.2h-5.4Z"/>
        </g>
      </g>
    </g>
  </g>
</svg>